HIERARCHY
ROOT Hips
{
	OFFSET 54.722500 -11.634714 85.667000
	CHANNELS 6 Xposition Yposition Zposition Xrotation Yrotation Zrotation
	JOINT spine
	{
		OFFSET 0.000000 -0.367607 6.392601
		CHANNELS 3 Xrotation Yrotation Zrotation
		JOINT spine1
		{
			OFFSET 0.000000 -0.000001 9.176109
			CHANNELS 3 Xrotation Yrotation Zrotation
			JOINT spine2
			{
				OFFSET 0.000000 -0.000002 8.792381
				CHANNELS 3 Xrotation Yrotation Zrotation
				JOINT Neck
				{
					OFFSET 0.000000 -1.076243 22.573700
					CHANNELS 3 Xrotation Yrotation Zrotation
					JOINT Head
					{
						OFFSET 0.000000 -0.000001 6.820114
						CHANNELS 3 Xrotation Yrotation Zrotation
						End Site
						{
							OFFSET 0.000000 5.444268 16.508499
						}
					}
				}
				JOINT RightShoulder
				{
					OFFSET -3.702209 0.515507 9.495087
					CHANNELS 3 Xrotation Yrotation Zrotation
					JOINT RightArm
					{
						OFFSET 0.000000 -0.000003 12.453705
						CHANNELS 3 Xrotation Yrotation Zrotation
						JOINT RightArmRoll
						{
							OFFSET 0.000000 -0.000001 6.286865
							CHANNELS 3 Xrotation Yrotation Zrotation
							JOINT RightForeArm
							{
								OFFSET 0.000000 -0.000003 18.311401
								CHANNELS 3 Xrotation Yrotation Zrotation
								JOINT RightForeArmRoll
								{
									OFFSET 0.000000 -0.000001 7.054825
									CHANNELS 3 Xrotation Yrotation Zrotation
									JOINT RightHand
									{
										OFFSET 0.000000 -0.000002 14.157501
										CHANNELS 3 Xrotation Yrotation Zrotation
										End Site
										{
											OFFSET 0.000000 0.000000 0.100006
										}
									}
								}
							}
						}
					}
				}
				JOINT LeftShoulder
				{
					OFFSET 3.702209 0.515507 9.495087
					CHANNELS 3 Xrotation Yrotation Zrotation
					JOINT LeftArm
					{
						OFFSET 0.000000 -0.000003 12.453705
						CHANNELS 3 Xrotation Yrotation Zrotation
						JOINT LeftArmRoll
						{
							OFFSET 0.000000 -0.000001 6.286865
							CHANNELS 3 Xrotation Yrotation Zrotation
							JOINT LeftForeArm
							{
								OFFSET 0.000000 -0.000003 18.311401
								CHANNELS 3 Xrotation Yrotation Zrotation
								JOINT LeftForeArmRoll
								{
									OFFSET 0.000000 -0.000001 7.054825
									CHANNELS 3 Xrotation Yrotation Zrotation
									JOINT LeftHand
									{
										OFFSET 0.000000 -0.000002 14.157501
										CHANNELS 3 Xrotation Yrotation Zrotation
										End Site
										{
											OFFSET 0.000000 0.000000 0.100006
										}
									}
								}
							}
						}
					}
				}
			}
		}
	}
	JOINT RightUpLeg
	{
		OFFSET -5.666149 0.871611 -1.039032
		CHANNELS 3 Xrotation Yrotation Zrotation
		JOINT RightUpLegRoll
		{
			OFFSET 0.000000 -0.000003 16.600502
			CHANNELS 3 Xrotation Yrotation Zrotation
			JOINT RightLeg
			{
				OFFSET 0.000000 0.000003 -20.557198
				CHANNELS 3 Xrotation Yrotation Zrotation
				JOINT RightLegRoll
				{
					OFFSET 0.000000 -0.000003 20.624397
					CHANNELS 3 Xrotation Yrotation Zrotation
					JOINT RightFoot
					{
						OFFSET 0.000000 -0.000003 17.166397
						CHANNELS 3 Xrotation Yrotation Zrotation
						JOINT RightToeBase
						{
							OFFSET 0.000000 -0.000003 14.350204
							CHANNELS 3 Xrotation Yrotation Zrotation
							End Site
							{
								OFFSET 0.006081 0.801059 6.949707
							}
						}
					}
				}
			}
		}
	}
	JOINT LeftUpLeg
	{
		OFFSET 5.666149 0.871611 -1.039032
		CHANNELS 3 Xrotation Yrotation Zrotation
		JOINT LeftUpLegRoll
		{
			OFFSET 0.000000 -0.000003 16.600601
			CHANNELS 3 Xrotation Yrotation Zrotation
			JOINT LeftLeg
			{
				OFFSET 0.000000 -0.000004 20.557098
				CHANNELS 3 Xrotation Yrotation Zrotation
				JOINT LeftLegRoll
				{
					OFFSET 0.000000 -0.000003 20.815102
					CHANNELS 3 Xrotation Yrotation Zrotation
					JOINT LeftFoot
					{
						OFFSET 0.000000 -0.000003 16.975708
						CHANNELS 3 Xrotation Yrotation Zrotation
						JOINT LeftToeBase
						{
							OFFSET 0.000000 -0.000003 14.350204
							CHANNELS 3 Xrotation Yrotation Zrotation
							End Site
							{
								OFFSET -0.027260 0.801060 6.949707
							}
						}
					}
				}
			}
		}
	}
}
MOTION
Frames: 12
Frame Time: 0.041667
54.172691 -11.881012 85.756592 -4.553833 2.590647 -0.990283 -0.904353 -0.032624 -0.108882 2.193951 -0.080744 -0.204499 3.839013 -0.083192 -0.203515 5.679308 -6.251300 2.116225 5.697130 4.700909 2.506152 -10.200642 -61.440243 -12.169172 -42.454844 -115.372318 -35.989800 -0.000000 -0.000001 -0.000003 5.851642 -13.732614 0.303021 -0.000001 -0.000001 -3.000000 -5.000220 -7.998733 0.000185 -3.494377 52.517721 3.419261 -34.004732 118.594337 31.658477 0.000007 -0.000001 0.000004 3.308523 10.142820 0.230899 0.000006 -0.000003 2.999999 -5.000229 7.998782 -0.000167 3.649438 -177.449175 -0.152897 -179.999991 0.000005 -1.171003 174.954517 -2.162594 -0.480892 0.000003 0.000001 0.035896 68.909191 6.924435 2.052563 25.456960 -7.355614 0.000010 2.532046 171.667038 -2.072061 -0.000005 -0.000005 -1.066470 -8.034223 1.227169 0.707644 -0.000001 -0.000000 -0.019230 69.973615 -6.234898 -3.790918 25.457961 7.355614 -0.001529 
54.173595 -11.880812 85.750793 -4.551960 2.590385 -0.989999 -0.905919 -0.032541 -0.109163 2.190691 -0.079656 -0.206032 3.835763 -0.082127 -0.205060 5.687860 -6.254033 2.112886 5.698694 4.698955 2.502966 -10.199894 -61.444641 -12.168528 -42.462449 -115.365078 -35.997238 0.000003 -0.000001 -0.000003 5.859615 -13.732624 0.303223 0.000002 -0.000001 -3.000000 -5.000217 -7.998732 0.000185 -3.485538 52.517881 3.408449 -33.989245 118.593312 31.643392 0.000004 -0.000000 0.000004 3.315683 10.143048 0.230461 0.000005 -0.000004 3.000000 -5.000230 7.998782 -0.000168 3.642860 -177.467125 -0.179215 -179.999991 0.000005 -1.172001 174.939600 -2.127683 -0.480364 0.000003 0.000001 0.035896 68.902566 6.925189 2.051019 25.456962 -7.355613 0.000010 2.523717 171.666983 -2.067524 -0.000005 -0.000004 -1.065650 -8.046763 1.223161 0.708474 -0.000001 -0.000000 -0.019230 69.979434 -6.231908 -3.799960 25.457961 7.355614 -0.001529 
54.161793 -11.883410 85.755600 -4.549779 2.590173 -0.989736 -0.907565 -0.032480 -0.109464 2.187272 -0.078585 -0.207640 3.832344 -0.081080 -0.206680 5.696780 -6.256574 2.109649 5.700003 4.696726 2.499871 -10.198089 -61.449115 -12.166669 -42.469891 -115.357770 -36.004649 -0.000001 -0.000000 -0.000002 5.867279 -13.732842 0.303392 -0.000000 -0.000001 -3.000000 -5.000219 -7.998732 0.000186 -3.476798 52.518247 3.397785 -33.974430 118.591359 31.628957 0.000005 0.000000 0.000004 3.322587 10.143277 0.230036 0.000006 -0.000003 3.000000 -5.000232 7.998783 -0.000167 3.635812 -177.485075 -0.206323 -179.999991 0.000005 -1.172998 174.924259 -2.091777 -0.480756 0.000003 0.000001 0.035896 68.895756 6.925997 2.049397 25.456964 -7.355614 0.000011 2.514897 171.667926 -2.062823 -0.000005 -0.000004 -1.064810 -8.059543 1.219052 0.709318 -0.000001 0.000000 -0.019229 69.985335 -6.228820 -3.809283 25.457963 7.355614 -0.001529 
54.162891 -11.881013 85.754295 -4.547376 2.589993 -0.989489 -0.909262 -0.032435 -0.109779 2.183741 -0.077525 -0.209304 3.828803 -0.080046 -0.208353 5.705962 -6.258983 2.106459 5.701136 4.694290 2.496839 -10.195580 -61.453644 -12.163977 -42.477332 -115.350475 -36.012145 -0.000001 -0.000002 -0.000003 5.874746 -13.733161 0.303543 0.000001 -0.000001 -3.000000 -5.000221 -7.998731 0.000185 -3.468147 52.518701 3.387238 -33.959246 118.589296 31.614067 0.000005 -0.000001 0.000004 3.329305 10.143509 0.229621 0.000006 -0.000003 3.000001 -5.000233 7.998782 -0.000167 3.628415 -177.503994 -0.234048 -179.999991 0.000005 -1.173995 174.908591 -2.054867 -0.481038 0.000003 0.000001 0.035897 68.888844 6.926836 2.047686 25.456960 -7.355615 0.000010 2.505764 171.667871 -2.058079 -0.000005 -0.000005 -1.063970 -8.072484 1.214885 0.710171 -0.000001 -0.000000 -0.019230 69.991230 -6.225732 -3.818706 25.457961 7.355614 -0.001529 
54.179588 -11.892211 85.755501 -4.544839 2.589832 -0.989247 -0.910998 -0.032397 -0.110103 2.180132 -0.076471 -0.210998 3.825203 -0.079018 -0.210058 5.715284 -6.261320 2.103317 5.702171 4.691752 2.493836 -10.192658 -61.458192 -12.160803 -42.484774 -115.343180 -36.019696 0.000001 -0.000001 -0.000002 5.882083 -13.733484 0.303676 -0.000000 -0.000001 -3.000000 -5.000221 -7.998732 0.000186 -3.459545 52.519152 3.376756 -33.942864 118.588012 31.597749 0.000007 -0.000001 0.000004 3.335899 10.143643 0.229220 0.000003 -0.000003 3.000000 -5.000228 7.998782 -0.000168 3.620816 -177.522941 -0.262086 -179.999991 0.000005 -1.175006 174.892758 -2.017970 -0.480323 0.000003 0.000001 0.035896 68.881816 6.927671 2.046083 25.456959 -7.355615 0.000009 2.496436 171.667803 -2.053287 -0.000004 -0.000005 -1.063120 -8.085515 1.210667 0.711028 -0.000002 0.000000 -0.019230 69.997131 -6.222644 -3.828229 25.457963 7.355616 -0.001529 
54.177597 -11.891212 85.753494 -4.542288 2.589682 -0.989015 -0.912742 -0.032362 -0.110430 2.176511 -0.075419 -0.212700 3.821583 -0.077991 -0.211770 5.724636 -6.263648 2.100179 5.703170 4.689177 2.490850 -10.189638 -61.462775 -12.157524 -42.492219 -115.335872 -36.027264 -0.000001 -0.000001 -0.000002 5.889395 -13.733811 0.303801 0.000000 -0.000001 -3.000000 -5.000222 -7.998732 0.000185 -3.450951 52.519701 3.366289 -33.927496 118.585908 31.582593 0.000006 0.000000 0.000004 3.342486 10.143874 0.228811 0.000005 -0.000003 2.999999 -5.000230 7.998782 -0.000168 3.613176 -177.541888 -0.290198 -179.999991 0.000005 -1.176003 174.876858 -1.981062 -0.480572 0.000003 0.000001 0.035896 68.874808 6.928537 2.044284 25.456960 -7.355614 0.000010 2.487049 171.668732 -2.048434 -0.000005 -0.000004 -1.062270 -8.098573 1.206441 0.711885 -0.000001 0.000000 -0.019229 70.003114 -6.219496 -3.837839 25.457961 7.355615 -0.001529 
54.158989 -11.870112 85.750694 -4.539786 2.589521 -0.988782 -0.914463 -0.032323 -0.110752 2.172922 -0.074363 -0.214385 3.817993 -0.076962 -0.213467 5.733928 -6.266004 2.097018 5.704225 4.686660 2.487843 -10.186812 -61.467311 -12.154463 -42.499688 -115.328564 -36.034835 -0.000001 -0.000002 -0.000003 5.896757 -13.734231 0.303939 -0.000001 -0.000001 -3.000000 -5.000216 -7.998733 0.000186 -3.442332 52.520156 3.355788 -33.912309 118.583859 31.567618 0.000005 -0.000001 0.000004 3.349110 10.144009 0.228408 0.000005 -0.000003 3.000000 -5.000232 7.998782 -0.000168 3.605628 -177.560835 -0.318147 -179.999991 0.000004 -1.177000 174.861053 -1.944154 -0.480811 0.000003 0.000001 0.035896 68.867787 6.929367 2.042679 25.456957 -7.355614 0.000009 2.477761 171.668691 -2.043648 -0.000005 -0.000005 -1.061420 -8.111585 1.202234 0.712736 -0.000001 -0.000001 -0.019230 70.009016 -6.216409 -3.847361 25.457961 7.355615 -0.001530 
54.159492 -11.875711 85.757393 -4.537444 2.589330 -0.988523 -0.916151 -0.032272 -0.111063 2.169421 -0.073299 -0.216033 3.814493 -0.075922 -0.215125 5.743030 -6.268453 2.093826 5.705410 4.684293 2.484792 -10.184511 -61.471825 -12.152018 -42.507150 -115.321269 -36.042324 -0.000001 -0.000001 -0.000003 5.904278 -13.734449 0.304085 0.000001 -0.000001 -3.000001 -5.000218 -7.998731 0.000185 -3.433647 52.520603 3.345203 -33.896101 118.582643 31.551581 0.000005 -0.000000 0.000004 3.355879 10.144238 0.227991 0.000004 -0.000003 3.000000 -5.000232 7.998782 -0.000168 3.598330 -177.579782 -0.345691 -179.999991 0.000005 -1.177997 174.845452 -1.908256 -0.480102 0.000003 0.000001 0.035897 68.860874 6.930204 2.041068 25.456959 -7.355615 0.000009 2.468716 171.668636 -2.038938 -0.000005 -0.000005 -1.060570 -8.124475 1.198077 0.713578 -0.000001 -0.000001 -0.019229 70.014910 -6.213326 -3.856786 25.457959 7.355614 -0.001529 
54.165497 -11.883512 85.758591 -4.535346 2.589109 -0.988256 -0.917773 -0.032205 -0.111358 2.166052 -0.072221 -0.217618 3.811123 -0.074869 -0.216721 5.751841 -6.271062 2.090560 5.706800 4.682143 2.481671 -10.183034 -61.476272 -12.150521 -42.514793 -115.314029 -36.049892 0.000000 -0.000002 -0.000003 5.912033 -13.734559 0.304268 0.000000 -0.000000 -2.999999 -5.000219 -7.998731 0.000186 -3.424880 52.520852 3.334496 -33.881444 118.580745 31.537357 0.000005 -0.000001 0.000004 3.362860 10.144466 0.227562 0.000003 -0.000003 3.000000 -5.000231 7.998782 -0.000167 3.591415 -177.597732 -0.372532 -179.999991 0.000005 -1.178994 174.830248 -1.872362 -0.480372 0.000003 0.000001 0.035896 68.854167 6.931016 2.039441 25.456959 -7.355616 0.000010 2.460053 171.668581 -2.034313 -0.000005 -0.000005 -1.059740 -8.137187 1.194000 0.714406 -0.000001 -0.000001 -0.019230 70.020722 -6.210307 -3.866027 25.457959 7.355615 -0.001529 
54.166294 -11.880413 85.757210 -4.533603 2.588815 -0.987958 -0.919306 -0.032114 -0.111629 2.162862 -0.071125 -0.219118 3.807933 -0.073796 -0.218232 5.760252 -6.273875 2.087189 5.708468 4.680297 2.478456 -10.182644 -61.480541 -12.150303 -42.522436 -115.306803 -36.057310 -0.000001 -0.000001 -0.000002 5.920114 -13.734570 0.304476 0.000001 -0.000001 -3.000000 -5.000219 -7.998731 0.000186 -3.415984 52.520910 3.323608 -33.866141 118.579775 31.522518 0.000004 0.000001 0.000004 3.370137 10.144691 0.227116 0.000004 -0.000003 3.000000 -5.000230 7.998782 -0.000168 3.585046 -177.614671 -0.398429 -179.999991 0.000005 -1.180005 174.815509 -1.837463 -0.480698 0.000003 0.000001 0.035896 68.847556 6.931796 2.037901 25.456962 -7.355615 0.000010 2.451902 171.669524 -2.029800 -0.000005 -0.000004 -1.058930 -8.149638 1.190033 0.715216 -0.000001 -0.000000 -0.019229 70.026453 -6.207346 -3.875084 25.457961 7.355614 -0.001529 
54.155594 -11.871713 85.755585 -4.532292 2.588461 -0.987626 -0.920729 -0.031993 -0.111871 2.159921 -0.070006 -0.220510 3.804982 -0.072697 -0.219636 5.768166 -6.276953 2.083712 5.710501 4.678848 2.475113 -10.183703 -61.484707 -12.151753 -42.530458 -115.299686 -36.064878 -0.000001 -0.000001 -0.000003 5.928626 -13.734265 0.304735 -0.000001 -0.000001 -3.000000 -5.000221 -7.998731 0.000185 -3.406934 52.520678 3.312499 -33.852388 118.578136 31.509613 0.000005 0.000000 0.000004 3.377791 10.144913 0.226651 0.000006 -0.000003 3.000000 -5.000232 7.998782 -0.000169 3.579356 -177.631637 -0.423210 -179.999991 0.000005 -1.180006 174.801384 -1.804554 -0.480157 0.000003 0.000001 0.035896 68.841251 6.932522 2.036433 25.456959 -7.355614 0.000010 2.444416 171.670480 -2.025453 -0.000004 -0.000004 -1.058130 -8.161758 1.186195 0.716001 -0.000001 -0.000000 -0.019230 70.032197 -6.204456 -3.883654 25.457963 7.355613 -0.001529 
54.158787 -11.872509 85.752602 -4.531501 2.588016 -0.987247 -0.922014 -0.031836 -0.112077 2.157251 -0.068858 -0.221769 3.802322 -0.071569 -0.220908 5.775457 -6.280357 2.080080 5.712976 4.677884 2.471636 -10.186495 -61.488723 -12.155235 -42.539900 -115.291845 -36.073801 -0.000001 -0.000003 -0.000003 5.937634 -13.733751 0.305044 0.000000 -0.000001 -3.000001 -5.000219 -7.998732 0.000186 -3.397677 52.520135 3.301110 -33.838151 118.577494 31.496359 0.000004 0.000001 0.000003 3.385901 10.145230 0.226155 0.000004 -0.000003 3.000000 -5.000230 7.998782 -0.000168 3.574492 -177.647579 -0.446573 -179.999991 0.000005 -1.181003 174.788052 -1.772642 -0.480676 0.000003 0.000001 0.035896 68.835234 6.933233 2.035042 25.456960 -7.355615 0.000010 2.437747 171.670439 -2.021367 -0.000005 -0.000005 -1.057360 -8.173490 1.182538 0.716759 -0.000001 -0.000001 -0.019230 70.037757 -6.201660 -3.891950 25.457966 7.355614 -0.001528 
